<?xml version="1.0" encoding="UTF-8"?>
<svg id="Layer_1" data-name="Layer 1" xmlns="http://www.w3.org/2000/svg" viewBox="0 0 30 30">
  <defs>
    <style>
      .cls-1 {
        fill: none;
        stroke: #000;
        stroke-miterlimit: 10;
      }
    </style>
  </defs>
  <path class="cls-1" d="M20.5,13.5c-.61-3.49-1-5-4-5-4.12,0-6,3-6,7,0,4.26,2.63,5,6,5,4,0,6.44-2.81,7-7,.38-2.83.02-6.01-1-6-1.17,0-2.48,4.21-2,8,.21,1.7.09,5.71,2,6,2.34.35,6.31-4.87,6-10-.4-6.59-5.67-7.86-6-8C16.59.95,11.5.5,6.5,6.5c-5.4,6.47-3.48,16.79,4,20,7,3,12.66,1.14,18-4"/>
</svg>